# xmcd
# Track frame offsets:
# 150
# 19666
# 39154
# 55124
# 70216
# 98002
# 117554
# 137020
# 152409
# 165384
#
# Disc length: 2282 seconds
# Revision: 0
# Processed by: cddbd v1.5.2PL0 Copyright (c) Steve Scherf et al.
# Submitted via: VisiTrax 2.11.1.266 - For more info visit www.synapsa.com
#
DISCID=7308e80a
DTITLE=McDowell, Stringbark - Slurry
DYEAR=1900
DGENRE=
TTITLE0=Stripes On A Cadilac
TTITLE1=You Can't Lose What You Never Had
TTITLE2=Buy Myself Some Freedom
TTITLE3=John Hardy
TTITLE4=Kick The Stones
TTITLE5=Po' Black Mattie
TTITLE6=Reclaimation Blues
TTITLE7=Miss Maybelle
TTITLE8=The Cuckoo Bird
TTITLE9=Lamento
EXTD=
EXTT0=
EXTT1=
EXTT2=
EXTT3=
EXTT4=
EXTT5=
EXTT6=
EXTT7=
EXTT8=
EXTT9=
PLAYORDER=
